<?xml version="1.0" encoding="UTF-8"?>
<!DOCTYPE svg PUBLIC "-//W3C//DTD SVG 1.1//EN" "http://www.w3.org/Graphics/SVG/1.1/DTD/svg11.dtd">
<svg version="1.1" xmlns="http://www.w3.org/2000/svg" xmlns:xlink="http://www.w3.org/1999/xlink" x="0px" y="0px" width="128" height="128" viewBox="0, 0, 128, 128">
  <g id="Background">
    <rect x="0" y="0" width="128" height="128" fill="#000000" fill-opacity="0"/>
  </g>
  <g id="Background"/>
  <g id="Background">
    <path d="M18.093,6 L109.905,6 C116.561,6 122,11.439 122,18.093 L122,109.905 C122,116.559 116.561,122 109.905,122 L18.093,122 C11.439,122 6,116.559 6,109.905 L6,18.093 C6,11.439 11.439,6 18.093,6" fill="#727272"/>
    <path d="M101.982,6 C105.372,12.174 107.299,19.261 107.299,26.801 C107.299,50.715 87.912,70.101 64,70.101 C40.086,70.101 20.7,50.715 20.7,26.801 C20.7,19.261 22.628,12.174 26.016,6 z" fill="#EBEDED"/>
    <path d="M64,80.673 C72.621,80.673 79.608,87.661 79.608,96.283 C79.608,104.904 72.621,111.892 64,111.892 C55.377,111.892 48.39,104.904 48.39,96.283 C48.39,87.661 55.377,80.673 64,80.673" fill="#EBECEC"/>
    <path d="M70.151,37.096 C70.151,34.779 69.557,33.026 68.366,31.834 C67.174,30.647 65.716,30.049 64,30.049 C62.278,30.049 60.826,30.679 59.634,31.936 C58.446,33.191 57.847,34.913 57.847,37.096 C57.847,39.543 58.409,41.375 59.532,42.603 C60.66,43.827 62.146,44.439 64,44.439 C65.917,44.439 67.42,43.74 68.516,42.351 C69.608,40.964 70.151,39.21 70.151,37.096 z M40.118,6 L59.99,6 C59.418,7.026 59.136,8.43 59.136,10.205 C59.136,12.32 59.615,13.877 60.575,14.868 C61.533,15.86 62.679,16.358 64,16.358 C65.324,16.358 66.479,15.808 67.47,14.718 C68.466,13.625 68.964,12.124 68.964,10.205 C68.964,8.475 68.635,7.073 67.981,6 L88.017,6 C88.144,6.917 88.213,7.862 88.213,8.818 C88.213,11.26 87.487,13.827 86.03,16.503 C84.574,19.184 82.157,21.252 78.782,22.706 C80.636,23.303 82.239,24.18 83.596,25.335 C84.952,26.492 86.063,27.764 86.921,29.153 C87.783,30.542 88.41,32.018 88.806,33.569 C89.204,35.127 89.401,36.598 89.401,37.985 C89.401,41.164 88.789,44.074 87.564,46.718 C86.341,49.366 84.624,51.614 82.404,53.468 C80.188,55.323 77.545,56.756 74.467,57.784 C71.393,58.807 67.968,59.323 64.195,59.323 C60.56,59.323 57.172,58.843 54.03,57.884 C50.884,56.921 48.171,55.532 45.891,53.715 C43.608,51.897 41.823,49.695 40.534,47.12 C39.242,44.535 38.598,41.626 38.598,38.383 C38.598,37.127 38.744,35.772 39.041,34.314 C39.339,32.862 39.867,31.441 40.631,30.049 C41.388,28.66 42.403,27.373 43.658,26.181 C44.915,24.989 46.503,23.961 48.422,23.102 L48.422,23.002 C46.832,22.408 45.495,21.568 44.402,20.476 C43.312,19.38 42.434,18.175 41.771,16.856 C41.109,15.53 40.631,14.155 40.333,12.736 C40.036,11.31 39.886,10.005 39.886,8.818 C39.886,7.858 39.964,6.917 40.118,6" fill="#727272"/>
    <path d="M70.754,100.092 C70.754,101.018 70.58,101.855 70.238,102.594 C69.895,103.334 69.425,103.965 68.822,104.486 C68.22,105.001 67.507,105.399 66.681,105.678 C65.858,105.955 64.954,106.092 63.973,106.092 C63.008,106.092 62.118,105.955 61.292,105.678 C60.468,105.399 59.756,105.001 59.168,104.486 C58.574,103.965 58.103,103.334 57.76,102.594 C57.419,101.855 57.249,101.018 57.249,100.092 L57.249,92.533 C57.249,91.592 57.419,90.748 57.76,90.008 C58.103,89.269 58.579,88.634 59.181,88.104 C59.784,87.574 60.496,87.173 61.319,86.894 C62.146,86.62 63.027,86.478 63.973,86.478 C64.936,86.478 65.835,86.62 66.666,86.894 C67.503,87.173 68.22,87.574 68.822,88.104 C69.425,88.634 69.895,89.269 70.238,90.008 C70.58,90.748 70.754,91.592 70.754,92.533 z M65.305,92.675 C65.305,92.008 65.187,91.534 64.944,91.26 C64.702,90.981 64.379,90.839 63.973,90.839 C63.565,90.839 63.246,90.981 63.012,91.26 C62.785,91.534 62.666,92.008 62.666,92.675 L62.666,99.983 C62.666,100.65 62.785,101.11 63.012,101.37 C63.246,101.631 63.565,101.758 63.973,101.758 C64.379,101.758 64.702,101.613 64.944,101.315 C65.187,101.018 65.305,100.575 65.305,99.983 z" fill="#727272"/>
  </g>
  <defs/>
</svg>
